<?xml version="1.0" encoding="utf-8"?>
<!-- Generator: Adobe Illustrator 14.0.0, SVG Export Plug-In . SVG Version: 6.00 Build 43363)  -->
<!DOCTYPE svg PUBLIC "-//W3C//DTD SVG 1.1//EN" "http://www.w3.org/Graphics/SVG/1.1/DTD/svg11.dtd">
<svg version="1.1" id="Layer_1" xmlns="http://www.w3.org/2000/svg" xmlns:xlink="http://www.w3.org/1999/xlink" x="0px" y="0px"
	 width="1700.79px" height="1700.79px" viewBox="0 0 1700.79 1700.79" enable-background="new 0 0 1700.79 1700.79"
	 xml:space="preserve">
<path fill="#E6E7E8" stroke="#000000" stroke-width="7" stroke-linecap="round" stroke-linejoin="round" d="M538.011,810.259
	c-11.394-59.295-25.142-135.501-51.694-190.33c-34.889-72.048-133.346-37.087-160.993,22.528
	c-15.516-39.939-45.208-55.205-85.566-66.164c-9.884-2.684-18.506-2.924-27.889-2.499c-63.96,2.901-103.328,244.986-74.816,286.034
	c24.154,34.775,94.179,45.631,120.323,7.146c27.404-40.339-11.157-115.412,11.412-159.093c-14.631,28.318,84.3,99.176,108.292,13.82
	c14.751,40.672,11.077,83.951,15.218,125.897C402.346,949.385,555.761,902.635,538.011,810.259
	C536.298,801.342,540.7,824.253,538.011,810.259"/>
<path stroke="#000000" stroke-width="7" stroke-linecap="round" stroke-linejoin="round" d="M305.636,636.729
	c-3.857-20.393-13.921-39.106-23.195-57.458c-1.548-3.037-3.865-4.603-6.353-5.064c-3.776-5.957-8.483-11.213-14.686-15.24
	c-8.774-5.695-17.187,4.084-14.693,12.28c-2.695,2.529-3.963,6.768-3.219,10.664c-0.333,0.417-0.642,0.854-0.919,1.31
	c-8.964,0.003-14.63,13.307-5.178,19.278c18.88,11.928,34.84,26.113,46.872,45.067c4.93,7.766,15.033,5.154,18.357-0.935
	C305.017,644.311,306.41,640.823,305.636,636.729"/>
<path stroke="#000000" stroke-width="7" stroke-linecap="round" stroke-linejoin="round" d="M415.514,591.059
	c0.854-0.75,1.708-1.501,2.561-2.25c9.393-8.253-2.542-20.796-12.485-16.183c-3.204,1.487-6.387,3.099-9.514,4.838
	c-1.628-1.539-3.933-2.439-6.935-2.199c-1.328,0.107-2.596,0.303-3.829,0.554c-3.228-5.082-11.014-7.544-16.292-2.367
	c-14.722,14.438-25.356,34.847-25.209,55.779c0.002,0.234,0.04,0.448,0.055,0.674c-0.673,2.888-1.265,5.801-1.763,8.74
	c-2.051,12.11,15.047,17.76,19.179,7.888c4.167-2.778,7.024-6.701,9.804-10.862c0.565-0.846,1.134-1.663,1.705-2.468
	c11.569-10.549,27.97-17.158,41.844-22.115C424.668,607.503,423.1,593.823,415.514,591.059"/>
<path fill="#FFFFFF" stroke="#000000" stroke-width="7" stroke-linecap="round" stroke-linejoin="round" d="M274.114,666.188
	c-2.984-4.093-6.159-7.348-9.752-9.839c-4.237-4.581-9.326-8.142-15.38-10.119c-14.837-4.844-30.215,5.334-36.453,18.404
	c-6.116,12.814-7.796,27.748-6.05,41.762c0.599,4.813,1.499,9.509,2.85,13.976c1.123,5.687,2.988,11.221,5.711,16.467
	c0.449,0.865,0.938,1.704,1.445,2.528c4.065,8.991,9.95,17.816,18.971,22.06c14.042,6.608,28.128,2.168,38.795-8.444
	c4.058-4.037,5.521-8.633,5.183-13C290.98,717.238,288.841,686.387,274.114,666.188"/>
<path fill="#FFFFFF" stroke="#000000" stroke-width="7" stroke-linecap="round" stroke-linejoin="round" d="M435.695,682.014
	c-1.94-6.861-5.075-13.334-9.615-18.798c-0.63-0.76-1.304-1.484-2.009-2.18c-1.244-1.544-2.569-2.991-3.985-4.301
	c-7.499-6.935-18.502-9.707-28.285-6.415c-5.776,1.944-10.283,5.478-13.772,9.941c-3.858,3.841-6.981,8.452-9.091,13.219
	c-10.637,24.032-11.967,61.487,12.678,77.634c3.921,2.569,8.295,3.951,12.776,4.381c4.427,1.305,9.399,1.553,14.93,0.396
	c18.925-3.959,28.717-22.492,30.571-40.098C441.047,704.823,439.362,692.645,435.695,682.014"/>
<path stroke="#000000" stroke-width="7" stroke-linecap="round" stroke-linejoin="round" d="M276.445,723.823
	c-0.019-0.107-0.037-0.214-0.057-0.321c-0.038-0.186-0.079-0.372-0.12-0.558c-0.298-1.412-0.691-2.799-1.182-4.151
	c-3.258-9.344-10.236-17.102-19.686-18.857c-8.069-2.468-16.771-0.944-23.254,5.108c-7.42,6.926-9.063,16.683-7.18,26.232
	c1.154,5.858,4.187,10.88,8.298,14.72c6.796,10.365,20.665,15.194,32.137,7.915C275.631,747.419,278.661,735.098,276.445,723.823"/>
<path stroke="#000000" stroke-width="7" stroke-linecap="round" stroke-linejoin="round" d="M424.456,702.315
	c-4.634-6.463-12.039-11.578-20.167-10.42c-3.694-0.017-7.428,1.045-10.898,3.503c-0.084,0.059-0.167,0.123-0.25,0.183
	c-3.77,1.709-7.204,4.474-10.066,8.365c-6.929,9.423-3.999,23.64,0.68,33.259c0.842,1.732,2,3.318,3.338,4.76
	c1.535,2.517,3.625,4.509,6.04,5.979c2.012,1.499,4.306,2.597,6.876,3.072c9.214,1.704,16.752-1.502,23.395-7.846
	c0.221-0.211,0.414-0.44,0.62-0.661C435.173,733.296,431.977,712.804,424.456,702.315"/>
<path fill="#E6E7E8" stroke="#000000" stroke-width="7" stroke-linecap="round" stroke-linejoin="round" d="M710.189,704.414
	c-87.5-47.023-176.73,45.984-151.366,127.054c28.117,89.872,127.899,107.794,181.488,22.81
	C769.861,807.417,769.062,725.449,710.189,704.414C690.032,689.309,742.712,721.892,710.189,704.414 M691.354,807.044
	c-0.872,4.596-2.081,9.098-3.581,13.519c-0.328,0.315-0.65,0.635-0.987,0.942c-1.35,0.882-2.734,1.705-4.158,2.463
	c-1.408,0.453-2.832,0.842-4.274,1.17c-1.778,0.077-3.554,0.06-5.331-0.039c-2.492-0.542-4.941-1.238-7.351-2.074
	c-3.12-1.554-6.113-3.323-8.99-5.292c-2.994-2.581-5.776-5.377-8.359-8.372c-1.776-2.61-3.375-5.325-4.795-8.146
	c-0.724-2.116-1.335-4.263-1.82-6.447c-0.07-1.456-0.078-2.91-0.023-4.366c0.286-1.227,0.622-2.439,1.002-3.638
	c0.723-1.351,1.507-2.664,2.346-3.945c0.908-1.01,1.848-1.988,2.827-2.929c0.508-0.307,1.025-0.602,1.546-0.886
	c1.704-0.532,3.429-0.976,5.176-1.343c3.782-0.246,7.56-0.199,11.34,0.1c4.438,0.837,8.789,2.003,13.04,3.524
	c2.1,1.045,4.136,2.193,6.109,3.459c0.956,0.886,1.873,1.809,2.756,2.767c0.76,1.195,1.464,2.42,2.124,3.672
	c0.599,1.861,1.095,3.744,1.502,5.655C691.658,800.246,691.619,803.645,691.354,807.044
	C690.483,811.641,691.619,803.645,691.354,807.044"/>
<path fill="#E6E7E8" stroke="#000000" stroke-width="7" stroke-linecap="round" stroke-linejoin="round" d="M917.555,723.155
	c-101.76-65.752-197.306,109.373-98.2,171.013c119.239,74.16,225.547-107.228,112.788-165.137
	C927.367,726.578,921.904,725.965,917.555,723.155 M909.681,833.71c-5.451-1.362-10.799-3.031-16.04-5.026
	c-4.723-2.221-9.265-4.761-13.563-7.713c-1.89-1.657-3.676-3.412-5.358-5.273c-0.786-1.213-1.515-2.456-2.197-3.728
	c-0.391-1.236-0.729-2.486-1.02-3.748c-0.075-1.852-0.054-3.7,0.053-5.551c0.535-2.541,1.212-5.039,2.038-7.503
	c1.003-1.975,2.093-3.895,3.304-5.753c1.272-1.414,2.604-2.765,4.012-4.047c1.425-0.926,2.887-1.787,4.392-2.578
	c1.627-0.529,3.273-0.978,4.942-1.35c1.911-0.087,3.817-0.065,5.727,0.039c1.896,0.41,3.767,0.91,5.611,1.508
	c1.247,0.657,2.465,1.362,3.652,2.12c1.152,1.058,2.257,2.163,3.31,3.321c1.206,1.85,2.31,3.758,3.308,5.73
	c1.186,3.411,2.105,6.896,2.787,10.443c0.387,4.884,0.363,9.775-0.051,14.656c-0.891,4.781-2.152,9.469-3.803,14.042
	c-0.104,0.211-0.095,0.538-0.309,0.633C910.224,834.043,909.949,833.777,909.681,833.71
	C904.229,832.348,909.949,833.777,909.681,833.71"/>
<path fill="#E6E7E8" stroke="#000000" stroke-width="7" stroke-linecap="round" stroke-linejoin="round" d="M1235.648,847.464
	c-2.463-9.162-8.676-15.705-14.508-22.739c-4.338-5.65-8.676-11.301-13.014-16.952c8.195,10.705,6.514,8.327-5.049-7.135
	c-5.908-62.765,16.045-201.235-21.877-250.744c-22.609-29.515-67.949-18.571-81.066,14.834
	c-15.533,39.555,8.795,97.624,15.059,138.547c-176.766-26.623-112.049,293.546,44.471,184.419
	C1186.672,927.15,1246.781,888.879,1235.648,847.464C1233.186,838.303,1238.383,857.635,1235.648,847.464 M1105.658,773.153
	c1.965-0.675,3.959-1.243,5.982-1.705c1.119-0.047,2.24-0.054,3.361-0.02c0.877,0.212,1.75,0.452,2.613,0.718
	c1.08,0.583,2.137,1.201,3.17,1.865c1.33,1.21,2.598,2.483,3.812,3.81c0.314,3.942,0.463,7.888,0.248,11.826
	c-0.516,2.367-1.174,4.688-1.955,6.978c-1.121,2.189-2.361,4.301-3.723,6.349c-1.521,1.708-3.123,3.333-4.822,4.867
	c-1.607,1.063-3.266,2.04-4.973,2.934c-1.311,0.423-2.635,0.79-3.977,1.106c-1.08,0.039-2.162,0.042-3.244,0.007
	c-1.092-0.261-2.176-0.557-3.25-0.893c-1.529-0.812-3.02-1.688-4.467-2.641c-1.611-1.44-3.143-2.953-4.596-4.549
	c-0.736-1.14-1.43-2.306-2.076-3.501c-0.305-0.976-0.578-1.96-0.82-2.955c-0.037-1.098-0.039-2.196,0-3.295
	c0.357-1.553,0.777-3.087,1.275-4.603c1.02-1.96,2.145-3.856,3.371-5.695c1.842-2.065,3.811-3.998,5.889-5.829
	C1100.1,776.156,1102.826,774.565,1105.658,773.153C1107.623,772.478,1102.826,774.565,1105.658,773.153"/>
<path fill="#E6E7E8" stroke="#000000" stroke-width="7" stroke-linecap="round" stroke-linejoin="round" d="M1591.574,835.534
	c-1.432-15.773-5.346-31.129-7.758-46.745c-5.855-48.853-46.473-150.868-102.936-64.829
	c-21.16,32.242,21.254,183.284,62.332,183.534c22.383,10.588,41.859-8.949,43.521-33.936
	C1587.594,860.652,1592.512,848.638,1591.574,835.534C1590.143,819.761,1592.387,844.483,1591.574,835.534"/>
<path fill="#E6E7E8" stroke="#000000" stroke-width="7" stroke-linecap="round" stroke-linejoin="round" d="M1527.859,582.177
	c-7.812-15.136-27.957-25.277-44.648-22.836c-44.553-2.233-56.814,59.159-32.359,87.151
	C1492.502,694.167,1552.195,629.321,1527.859,582.177C1520.201,567.341,1534.338,594.729,1527.859,582.177"/>
<path fill="#E6E7E8" stroke="#000000" stroke-width="7" stroke-linecap="round" stroke-linejoin="round" d="M1518.939,999.727
	c-4.297-63.602-30.502-113.225-77.986-155.073c-4.51-5.092-9.561-9.533-15.154-13.323c25.496-40.555,17.137-128.385-36.676-144.261
	c-31.039-33.831-136.639-23.126-156.262,18.513c-35.23,74.756,56.939,70.601,100.518,57.115c6.578,1.303,13.09,2.91,19.396,5.191
	c2.227,1.098,4.383,2.307,6.465,3.652c0.904,0.828,1.777,1.685,2.615,2.578c0.666,1.054,1.291,2.131,1.873,3.233
	c0.691,2.152,1.248,4.335,1.699,6.549c0.35,5.036,0.242,10.085-0.205,15.115c-0.363,1.94-0.801,3.861-1.35,5.756
	c-0.758,1.302-1.592,2.561-2.482,3.797c-37.424,48.007,0.473,56.623,35.143,79.558c0.012,0.014,0.023,0.027,0.033,0.039
	c10.91,18.807,20.752,38.154,29.531,58.043c3.145,8.209,5.395,16.682,6.861,25.344c0.857,8.588,0.941,17.197,0.152,25.795
	c-1.043,5.898-2.549,11.666-4.604,17.293c-2.154,4.463-4.639,8.727-7.465,12.797c-3.025,3.539-6.299,6.83-9.832,9.871
	c-3.67,2.548-7.508,4.806-11.525,6.771c-4.111,1.48-8.309,2.637-12.602,3.469c-4.395,0.34-8.785,0.332-13.182-0.016
	c-79.428-15.038-141.854,62.773-44.035,97.98C1428.766,1181.11,1525.605,1098.392,1518.939,999.727
	C1516.979,970.727,1520.83,1027.715,1518.939,999.727"/>
</svg>
